<?xml version="1.0" encoding="UTF-8"?>
<svg xmlns="http://www.w3.org/2000/svg" data-name="Ebene 1" viewBox="0 0 226.77 226.77">
  <path d="M182.52 186.44a3.89 3.89 0 0 1 3.92 3.91V193a3.89 3.89 0 0 1-3.92 3.91H66.42a26.17 26.17 0 0 1-26.09-26.09V56A25.13 25.13 0 0 1 48 37.56a25.11 25.11 0 0 1 18.42-7.66h112.19a7.8 7.8 0 0 1 7.83 7.82v120a7.52 7.52 0 0 1-1.31 4.24 8 8 0 0 1-3.58 2.93 46.86 46.86 0 0 0-1 10.44 56.26 56.26 0 0 0 1 11.09zm-116.1-31.31h5.22V40.33h-5.22A15.6 15.6 0 0 0 50.77 56v104.35a25.13 25.13 0 0 1 15.65-5.22zm105.67 10.44H66.42q-7.5 0-11.57 3.09T50.77 176c0 2.83 1.36 5.27 4.08 7.34s6.57 3.1 11.57 3.1h105.67a67 67 0 0 1 0-20.87zm3.91-10.44V40.33H82.08v114.8zm-48.23-37.72c7.09 0 11.67-3 13.53-8.73h12.76c-3.27 12.33-13.74 18.55-26.72 18.55-15.93 0-26.51-9.38-26.51-25C100.83 82 114.14 68 131.7 68c16.69 0 27.05 10.47 24 30.11l-.43 2.39H114v2.4c0 8.84 4.07 14.51 13.77 14.51zm-12.43-25.74h28c.76-9.38-3.05-14.18-12-14.18-6.84 0-13.34 4.04-16 14.18z" fill="#1d1d1b"></path>
</svg>
