<?xml version="1.0" encoding="UTF-8"?>
<svg xmlns="http://www.w3.org/2000/svg" data-name="Ebene 1" viewBox="0 0 226.77 226.77">
  <path d="M182.52 186.44a3.89 3.89 0 0 1 3.92 3.91V193a3.89 3.89 0 0 1-3.92 3.91H66.42a26.17 26.17 0 0 1-26.09-26.09V56A25.13 25.13 0 0 1 48 37.56a25.11 25.11 0 0 1 18.42-7.66h112.19a7.78 7.78 0 0 1 7.83 7.82v120a7.52 7.52 0 0 1-1.31 4.24 8 8 0 0 1-3.58 2.93 46.86 46.86 0 0 0-1 10.44 56.26 56.26 0 0 0 1 11.09zm-116.1-31.31h5.22V40.33h-5.22A15.6 15.6 0 0 0 50.77 56v104.35a25.13 25.13 0 0 1 15.65-5.22zm105.67 10.44H66.42q-7.5 0-11.57 3.09T50.77 176c0 2.83 1.36 5.27 4.08 7.34s6.57 3.1 11.57 3.1h105.67a67 67 0 0 1 0-20.87zm3.91-10.44V40.33H82.08v114.8zm-74.35-73a3.89 3.89 0 0 1-3.92-3.92v-2.6a3.89 3.89 0 0 1 3.92-3.92h54.79a3.89 3.89 0 0 1 3.91 3.92v2.6a3.89 3.89 0 0 1-3.91 3.92zm58.7 14.35a3.91 3.91 0 0 0-3.91-3.92h-54.79a3.91 3.91 0 0 0-3.92 3.92V99a3.89 3.89 0 0 0 3.92 3.91h54.79a3.89 3.89 0 0 0 3.91-3.91z" fill="#1d1d1b"></path>
</svg>
