<?xml version="1.0" encoding="UTF-8"?>
<svg xmlns="http://www.w3.org/2000/svg" data-name="Ebene 1" viewBox="0 0 226.77 226.77">
  <path d="M182.52 186.44a3.89 3.89 0 0 1 3.92 3.91V193a3.89 3.89 0 0 1-3.92 3.91H66.42a26.17 26.17 0 0 1-26.09-26.09V56A25.13 25.13 0 0 1 48 37.56a25.11 25.11 0 0 1 18.42-7.66h112.19a7.78 7.78 0 0 1 7.83 7.82v120a7.52 7.52 0 0 1-1.31 4.24 8 8 0 0 1-3.58 2.93 46.86 46.86 0 0 0-1 10.44 56.26 56.26 0 0 0 1 11.09zm-116.1-31.31h5.22V40.33h-5.22A15.6 15.6 0 0 0 50.77 56v104.35a25.13 25.13 0 0 1 15.65-5.22zm105.67 10.44H66.42q-7.5 0-11.57 3.09T50.77 176c0 2.83 1.36 5.27 4.08 7.34s6.57 3.1 11.57 3.1h105.67a67 67 0 0 1 0-20.87zm3.91-10.44V40.33H82.08v114.8zm-33.7-59.07a19.13 19.13 0 0 1 0 9.68 18 18 0 0 1-4.83 8.44l-8.47 8.44a18.09 18.09 0 0 1-8.44 4.83 19.09 19.09 0 0 1-9.67 0 18.91 18.91 0 0 1-13.4-13.4 19.09 19.09 0 0 1 0-9.67 18.09 18.09 0 0 1 4.83-8.44l4.72-4.71a1.73 1.73 0 0 1 2.05-.38 2 2 0 0 1 1.3 1.74 22.65 22.65 0 0 0 1.24 6.58 1.81 1.81 0 0 1-.5 2l-1.61 1.74a8.74 8.74 0 0 0-2.67 6.26 8.9 8.9 0 0 0 15.2 6.39l8.31-8.31a9 9 0 0 0 0-12.65 8.19 8.19 0 0 0-1.36-1.14 1.66 1.66 0 0 1-.74-1.49 4.63 4.63 0 0 1 1.36-3.72l2.73-2.61a1.9 1.9 0 0 1 1.18-.56 2.17 2.17 0 0 1 1.3.31c.91.67 1.78 1.37 2.61 2.11a18.83 18.83 0 0 1 4.86 8.56zm4.1-30.89a19.13 19.13 0 0 0-9.68 0 18.08 18.08 0 0 0-8.43 4.83l-8.44 8.44a18.13 18.13 0 0 0-4.85 8.44 19.13 19.13 0 0 0 0 9.68 18.89 18.89 0 0 0 4.84 8.56 31.09 31.09 0 0 0 2.6 2.11 2.13 2.13 0 0 0 1.31.31 1.9 1.9 0 0 0 1.18-.56l2.73-2.6a4.7 4.7 0 0 0 1.36-3.73 1.67 1.67 0 0 0-.74-1.48 8.8 8.8 0 0 1-1.37-1.12 9 9 0 0 1 0-12.66l8.31-8.31a8.9 8.9 0 0 1 15.2 6.39 8.77 8.77 0 0 1-2.67 6.27l-1.61 1.73a1.83 1.83 0 0 0-.5 2 22.6 22.6 0 0 1 1.26 6.53 2 2 0 0 0 1.3 1.74 1.73 1.73 0 0 0 2.05-.37l4.75-4.69a18.08 18.08 0 0 0 4.84-8.43 19.13 19.13 0 0 0 0-9.68 18.38 18.38 0 0 0-13.4-13.4z" fill="#1d1d1b"></path>
</svg>
