<?xml version="1.0" encoding="UTF-8"?>
<svg xmlns="http://www.w3.org/2000/svg" data-name="Ebene 1" viewBox="0 0 226.77 226.77">
  <path d="M170.78 50.77a15.6 15.6 0 0 1 15.66 15.65v114.8a15.59 15.59 0 0 1-15.66 15.65H56a15.59 15.59 0 0 1-15.66-15.65V66.42A15.6 15.6 0 0 1 56 50.77h15.64v-17a3.89 3.89 0 0 1 3.92-3.91h2.6a3.89 3.89 0 0 1 3.92 3.91v17h62.61v-17a3.91 3.91 0 0 1 3.92-3.91h2.61a3.89 3.89 0 0 1 3.91 3.91v17zM56 61.21a5 5 0 0 0-5.22 5.21v15.66H176V66.42a5 5 0 0 0-5.22-5.21zm114.78 125.23a5 5 0 0 0 5.22-5.22V92.51H50.77v88.71a5 5 0 0 0 5.23 5.22zM88.6 134.26a3.89 3.89 0 0 0 3.91-3.92v-13a3.89 3.89 0 0 0-3.91-3.91h-13a3.89 3.89 0 0 0-3.92 3.91v13a3.89 3.89 0 0 0 3.92 3.92zm0 31.31a3.91 3.91 0 0 0 3.91-3.92v-13a3.91 3.91 0 0 0-3.91-3.92h-13a3.91 3.91 0 0 0-3.92 3.92v13a3.91 3.91 0 0 0 3.92 3.92zm31.31-31.31a3.89 3.89 0 0 0 3.91-3.92v-13a3.89 3.89 0 0 0-3.91-3.91h-13a3.89 3.89 0 0 0-3.91 3.87v13a3.89 3.89 0 0 0 3.91 3.92zm0 31.31a3.91 3.91 0 0 0 3.91-3.92v-13a3.91 3.91 0 0 0-3.91-3.92h-13a3.91 3.91 0 0 0-3.91 3.92v13a3.91 3.91 0 0 0 3.91 3.92zm31.31-31.31a3.89 3.89 0 0 0 3.91-3.92v-13a3.89 3.89 0 0 0-3.91-3.91h-13.05a3.89 3.89 0 0 0-3.91 3.91v13a3.89 3.89 0 0 0 3.91 3.92zm0 31.31a3.91 3.91 0 0 0 3.91-3.92v-13a3.91 3.91 0 0 0-3.91-3.92h-13.05a3.91 3.91 0 0 0-3.91 3.92v13a3.91 3.91 0 0 0 3.91 3.92z" fill="#1d1d1b"></path>
</svg>
