<?xml version="1.0" encoding="UTF-8"?>
<svg xmlns="http://www.w3.org/2000/svg" data-name="Ebene 1" viewBox="0 0 226.77 226.77">
  <path d="M100.78 108.67a3.81 3.81 0 0 0 5.13-3.7l-.52-15.69 9.52-12a3.82 3.82 0 0 0-1.93-6L97.9 66.87 89.39 54.1a3.77 3.77 0 0 0-3.15-1.7 3.83 3.83 0 0 0-3.17 1.67l-8.8 13-14.78 4.14a3.85 3.85 0 0 0-2.59 2.48 3.79 3.79 0 0 0 .61 3.53l9.64 12.39-.62 15.33a3.82 3.82 0 0 0 5.11 3.74l14.75-5.34zm-26.4-9.09l.45-11A3.8 3.8 0 0 0 74 86l-7-9 10.65-3a3.79 3.79 0 0 0 2.15-1.5l6.4-9.45 6.13 9.21a3.81 3.81 0 0 0 2.11 1.54l11 3.17-6.86 8.68a3.79 3.79 0 0 0-.82 2.49l.38 11.41-10.41-3.85a3.87 3.87 0 0 0-2.62 0zm-7 81.1a3.8 3.8 0 0 1-3.81 3.81H25.39a3.8 3.8 0 0 1-3.81-3.81V28a3.8 3.8 0 0 1 3.81-3.81h37.36a3.81 3.81 0 1 1 0 7.62H29.2v145h34.35a3.81 3.81 0 0 1 3.81 3.87zM72.9 26.56a3.81 3.81 0 1 1 5.39-5.39l1.58 1.58 1.58-1.58a3.81 3.81 0 1 1 5.39 5.39l-1.58 1.58 1.58 1.58a3.81 3.81 0 1 1-5.39 5.39l-1.58-1.58-1.58 1.58a3.8 3.8 0 0 1-5.39 0 3.81 3.81 0 0 1 0-5.39l1.58-1.58zM92.81 28a3.8 3.8 0 0 1 3.81-3.81h81.43a3.81 3.81 0 0 1 3.82 3.81v83.05a3.82 3.82 0 0 1-7.63 0V31.83H96.62A3.81 3.81 0 0 1 92.81 28zM63.22 46.37L60 49.58l3.21 3.21a3.81 3.81 0 1 1-5.39 5.39L54.62 55l-3.21 3.21A3.81 3.81 0 0 1 46 52.79l3.21-3.21L46 46.37A3.81 3.81 0 0 1 51.4 41l3.22 3.21L57.83 41a3.81 3.81 0 0 1 5.39 5.39zm36.53 125.19a3.82 3.82 0 0 1-3.81 3.82h-1.21a3.82 3.82 0 0 1 0-7.63h1.21a3.82 3.82 0 0 1 3.81 3.81zm105.16-34L188 200.53a8.32 8.32 0 0 1-10.22 5.9l-8.78-2.36a3.81 3.81 0 0 1 2-7.37l8.82 2.37a.74.74 0 0 0 .89-.52l16.87-63a.75.75 0 0 0-.52-.89l-20-5.35a3.81 3.81 0 1 1 2-7.36l20 5.35a8.36 8.36 0 0 1 5.85 10.28zm-66.25 30.78c.19-.19.39-.39.57-.6A15.44 15.44 0 0 0 127.76 142c-8.7 0-15.44 8.3-15.44 15.44 0 5.56 2 8.81 4.5 11l-12.56 32.66a3.81 3.81 0 0 0 3.56 5.18h39.88a3.82 3.82 0 0 0 3.56-5.18zm-25.29 30.29l8-20.72 3.62-9.39a3.82 3.82 0 0 0-1.47-4.56c-2.46-1.6-3.55-2.93-3.55-6.55 0-3.09 3.5-7.82 7.82-7.82a7.83 7.83 0 0 1 5.81 13A8.4 8.4 0 0 1 132 164a3.81 3.81 0 0 0-1.48 4.56l11.6 30.11zM167.93 187a8.36 8.36 0 0 1-8.34 8.35 3.82 3.82 0 1 1 0-7.63.73.73 0 0 0 .72-.72v-65.22a.73.73 0 0 0-.72-.73h-49a.73.73 0 0 0-.72.73v20.28a3.82 3.82 0 0 1-7.63 0v-20.28a8.36 8.36 0 0 1 8.35-8.35h49a8.35 8.35 0 0 1 8.34 8.35zm-68.18 0a3.82 3.82 0 0 1-3.81 3.81h-1.21a3.81 3.81 0 1 1 0-7.62h1.21a3.81 3.81 0 0 1 3.81 3.71zm3.08-27.09H83.56a.74.74 0 0 0-.72.72v37.4a.73.73 0 0 0 .72.72h11.62a3.82 3.82 0 0 1 0 7.63H83.56a8.36 8.36 0 0 1-8.35-8.35v-37.4a8.36 8.36 0 0 1 8.35-8.35h19.27a3.82 3.82 0 0 1 0 7.63z" fill="#010101"></path>
</svg>
