<?xml version="1.0" encoding="UTF-8"?>
<svg xmlns="http://www.w3.org/2000/svg" data-name="Ebene 1" viewBox="0 0 226.77 226.77">
  <path d="M113.39 30.62a80.17 80.17 0 0 1 41.38 11.18A83.59 83.59 0 0 1 185 72a82.19 82.19 0 0 1 0 82.77 83.59 83.59 0 0 1-30.2 30.2A82.19 82.19 0 0 1 72 185a83.59 83.59 0 0 1-30.2-30.2 82.19 82.19 0 0 1 0-82.8A83.59 83.59 0 0 1 72 41.8a80.18 80.18 0 0 1 41.39-11.18zm0 154.85a70.39 70.39 0 0 0 36.21-9.67 72.33 72.33 0 0 0 26.2-26.2 70.39 70.39 0 0 0 9.67-36.21 70.4 70.4 0 0 0-9.67-36.22A72.22 72.22 0 0 0 149.6 51a70.31 70.31 0 0 0-36.21-9.68A70.31 70.31 0 0 0 77.17 51 72.12 72.12 0 0 0 51 77.17a70.31 70.31 0 0 0-9.68 36.22A70.31 70.31 0 0 0 51 149.6a72.22 72.22 0 0 0 26.19 26.2 70.4 70.4 0 0 0 36.2 9.67zm-2.67-128.15V68a42.38 42.38 0 0 0-21.53 5.67 41.58 41.58 0 0 0-15.52 15.52A42.38 42.38 0 0 0 68 110.72H57.32A52.25 52.25 0 0 1 64.49 84 53 53 0 0 1 84 64.49a52.25 52.25 0 0 1 26.72-7.17zm2.67 24a31.89 31.89 0 0 1 32 32 31.89 31.89 0 0 1-32 32 31.89 31.89 0 0 1-32-32 31.89 31.89 0 0 1 32-32zm0 53.4a21.24 21.24 0 0 0 15-36.38 21.24 21.24 0 1 0-30 30 20.51 20.51 0 0 0 15 6.41zm0-29.37a8 8 0 1 1-5.68 2.33 7.71 7.71 0 0 1 5.68-2.3z"></path>
</svg>
