<?xml version="1.0" encoding="UTF-8"?>
<svg xmlns="http://www.w3.org/2000/svg" data-name="Ebene 1" viewBox="0 0 226.77 226.77">
  <path d="M208.84 65.26c-11.57 0-17.76-5.14-24.93-11.1-7.57-6.28-16.14-13.4-31.32-13.4-19.4 0-31.68 7.39-38 12.72a1.86 1.86 0 0 1-2.39 0c-6.33-5.33-18.6-12.72-38-12.72-15.19 0-23.76 7.12-31.32 13.4-7.17 6-13.37 11.1-24.93 11.1H14.8a1.87 1.87 0 0 0-1.86 1.87v117A1.87 1.87 0 0 0 14.8 186h3.14c13.9 0 23.77-7.14 32.48-13.44 7.86-5.69 15.29-11.06 25-11.06A56.38 56.38 0 0 1 110 173.72l2.09 1.88a1.87 1.87 0 0 0 2.49 0l2.11-1.88a56.29 56.29 0 0 1 34.61-12.22c9.73 0 17.15 5.37 25 11.06 8.71 6.3 18.58 13.44 32.49 13.44H212a1.87 1.87 0 0 0 1.87-1.87v-117a1.87 1.87 0 0 0-1.87-1.87zM44.56 164.47c-6.87 5-13.42 9.7-21.62 11.12V75c12.14-1.36 19.62-7.57 26.31-13.13 7.17-6 13.37-11.1 24.94-11.1 10.24 0 19.27 2.35 26.82 7a36.5 36.5 0 0 1 6.84 5.33 1.85 1.85 0 0 1 .54 1.31v96.11a66.09 66.09 0 0 0-32.95-9c-12.97-.01-22.08 6.58-30.88 12.95zm159.28 11.12c-8.21-1.42-14.76-6.15-21.63-11.12-8.8-6.37-17.91-13-30.87-13a66 66 0 0 0-32.95 9v-96.1a1.88 1.88 0 0 1 .53-1.31 36.76 36.76 0 0 1 6.84-5.33c7.56-4.62 16.58-7 26.83-7 11.57 0 17.76 5.14 24.93 11.1 6.69 5.56 14.17 11.77 26.32 13.13z" fill="#1d1d1b"></path>
</svg>
