<?xml version="1.0" encoding="UTF-8"?>
<svg xmlns="http://www.w3.org/2000/svg" data-name="Ebene 1" viewBox="0 0 226.77 226.77">
  <path d="M154.18 140.47a25 25 0 0 1-9.9-2l3.69-8.55a15.72 15.72 0 0 0 11.37.41l3.06 8.79a25 25 0 0 1-8.22 1.35zm-86.32-.17a24.94 24.94 0 0 1-8.64-1.54l3.22-8.76a15.61 15.61 0 0 0 11.37-.21l3.54 8.62a24.89 24.89 0 0 1-9.49 1.89zm68.53-6.19l-13.12-7.47 4.61-8.1L141 126zm-51-.16l-4.79-8 13-7.76 4.78 8zm31-11.13a15.63 15.63 0 0 0-11.37-.27l-3.17-8.76a25.05 25.05 0 0 1 18.13.43zm59.22-1.19a7.66 7.66 0 1 0 6.25 6.26 7.67 7.67 0 0 0-6.31-6.26zm-127 0a7.66 7.66 0 1 0 6.25 6.26 7.67 7.67 0 0 0-6.27-6.26zm125.55-99.08a29.34 29.34 0 0 0-29.33 29.34c0 24.09 23.07 26.64 29.33 63.27 6.26-36.64 29.33-39.18 29.33-63.27a29.34 29.34 0 0 0-29.33-29.34zm-1.37 39.06a10.52 10.52 0 1 1 11.8-11.81 10.54 10.54 0 0 1-11.8 11.81zm18.93 45.76v63.91a1.16 1.16 0 0 1-.58 1l-33.2 18.78a1.16 1.16 0 0 1-1.73-1v-39.24a1.14 1.14 0 0 0-1.15-1.15h-4.45a1.15 1.15 0 0 0-1.16 1.15v39.24a1.15 1.15 0 0 1-1.78 1l-34.52-22.36a1.14 1.14 0 0 1-.53-1v-34.8a1.16 1.16 0 0 0-1.16-1.16h-4.14a1.16 1.16 0 0 0-1.15 1.16v34.81a1.18 1.18 0 0 1-.52 1L72 191a1.16 1.16 0 0 1-1.79-1v-39.18a1.15 1.15 0 0 0-1.16-1.15h-4.42a1.15 1.15 0 0 0-1.16 1.15v39.23a1.15 1.15 0 0 1-1.73 1l-29.63-17a1.15 1.15 0 0 1-.58-1V71.72a1.15 1.15 0 0 1 1.7-1l29.63 15.82a1.15 1.15 0 0 1 .61 1v32.36a1.16 1.16 0 0 0 1.16 1.16h4.45a1.16 1.16 0 0 0 1.16-1.16v-32a1.14 1.14 0 0 1 .62-1l33.62-17.44a1.16 1.16 0 0 1 1.69 1v32.48a1.16 1.16 0 0 0 1.15 1.15h4.14a1.16 1.16 0 0 0 1.16-1.15V70.43a1.16 1.16 0 0 1 1.68-1l38.49 19.53c-4.55-5.73-9.27-8.71-11.66-17.23a1.17 1.17 0 0 0-.58-.72l-28.4-14.51a6 6 0 0 0-5.51 0L67.7 76.75a1.12 1.12 0 0 1-1.08 0L23.28 53.22v126.16a1.14 1.14 0 0 0 .58 1l40.07 23a6 6 0 0 0 6.33-.21l35.84-23.77a6 6 0 0 1 6.61 0l36.69 23.87a6.05 6.05 0 0 0 6.35.13l43.66-25.82a1.16 1.16 0 0 0 .56-1V85l-.89 1.12a33.19 33.19 0 0 0-7.36 21.25z" fill="#010101"></path>
</svg>
