<?xml version="1.0" encoding="UTF-8"?>
<svg xmlns="http://www.w3.org/2000/svg" id="Ebene_1" data-name="Ebene 1" viewBox="0 0 226.77 226.77">
  <defs>
    <style>.cls-1{fill:none}</style>
  </defs>
  <path class="cls-1" d="M100.23 172.74a26.8 26.8 0 0 0-12.88-3 29.94 29.94 0 0 0-11.93 2.45c-4.34 2-6.51 4.43-6.51 7.32q0 3.79 5.56 6.78a26.82 26.82 0 0 0 12.88 3 29.89 29.89 0 0 0 11.93-2.44q6.51-3 6.51-7.32 0-3.8-5.56-6.79zM38.54 64.61h10.85a3.24 3.24 0 0 0 3.25-3.25V50.51a3.24 3.24 0 0 0-3.25-3.26H38.54a3.24 3.24 0 0 0-3.26 3.26v10.85a3.24 3.24 0 0 0 3.26 3.25zM191.49 66.7l-78.1 26.04v17.35l78.1-26.03V66.7zM187 155.38a26.8 26.8 0 0 0-12.88-3 29.93 29.93 0 0 0-11.93 2.44q-6.51 3-6.51 7.32 0 3.79 5.56 6.78a26.82 26.82 0 0 0 12.88 3 29.89 29.89 0 0 0 11.93-2.44c4.34-2 6.51-4.43 6.51-7.32q.01-3.79-5.56-6.78zM38.54 90.64h10.85a3.1 3.1 0 0 0 2.3-1 3.14 3.14 0 0 0 1-2.3v-10.8a3.14 3.14 0 0 0-1-2.3 3.1 3.1 0 0 0-2.3-.95H38.54a3.24 3.24 0 0 0-3.26 3.25v10.85a3.24 3.24 0 0 0 3.26 3.25z"></path>
  <path d="M196.5 59.79a8.46 8.46 0 0 0-5-1.69 8.69 8.69 0 0 0-2.75.47l-78.11 26a8 8 0 0 0-4.34 3.12 8.56 8.56 0 0 0-1.62 5v73.81a33.46 33.46 0 0 0-17.36-4.34q-10.84 0-18.44 5t-7.59 12.2q0 7.19 7.59 12.34t18.44 5.15q10.85 0 18.44-5.15t7.6-12.2v-60.19l78.1-26v55.86a33.46 33.46 0 0 0-17.36-4.33q-10.84 0-18.44 5T148.1 162q0 7.18 7.59 12.34t18.44 5.15q10.85 0 18.44-5.15t7.6-12.21V66.7a8.05 8.05 0 0 0-3.67-6.91zM99.28 186.84a29.89 29.89 0 0 1-11.93 2.44 26.82 26.82 0 0 1-12.88-3q-5.56-3-5.56-6.78c0-2.89 2.17-5.34 6.51-7.32a29.94 29.94 0 0 1 11.93-2.45 26.8 26.8 0 0 1 12.88 3q5.56 3 5.56 6.78 0 4.35-6.51 7.33zm14.11-76.75V92.74l78.1-26v17.32zm72.67 59.39a29.89 29.89 0 0 1-11.93 2.44 26.82 26.82 0 0 1-12.88-3q-5.56-3-5.56-6.78 0-4.33 6.51-7.32a29.93 29.93 0 0 1 11.93-2.44 26.8 26.8 0 0 1 12.88 3q5.56 3 5.56 6.78c0 2.89-2.17 5.34-6.51 7.32z"></path>
  <path d="M98.89 134v-8.68H64.57a3.23 3.23 0 0 1-3.25-3.25V89.56a3.24 3.24 0 0 1 3.25-3.26h35.84a16.94 16.94 0 0 1 1.17-1.94 13.66 13.66 0 0 1 7.33-5.3l4.29-1.43H64.57a3.24 3.24 0 0 1-3.25-3.26V41.83a3.24 3.24 0 0 1 3.25-3.25h62.92a3.24 3.24 0 0 1 3.25 3.25v30l21.51-7.17h-9.58a3.24 3.24 0 0 1-3.25-3.25v-10.9a3.24 3.24 0 0 1 3.25-3.26h10.85a3.24 3.24 0 0 1 3.26 3.26v10.85a3.14 3.14 0 0 1-.67 2l9.34-3.11V36.41a6.49 6.49 0 0 0-6.51-6.51h-2.16v5.42a3.24 3.24 0 0 1-3.26 3.26h-10.85a3.24 3.24 0 0 1-3.25-3.26V29.9H52.64v5.42a3.24 3.24 0 0 1-3.25 3.26H38.54a3.24 3.24 0 0 1-3.26-3.26V29.9h-2.16a6.49 6.49 0 0 0-6.51 6.51v91.11a6.47 6.47 0 0 0 6.51 6.48h2.16v-5.42a3.24 3.24 0 0 1 3.26-3.26h10.85a3.14 3.14 0 0 1 2.3 1 3.18 3.18 0 0 1 1 2.31V134zM35.28 50.51a3.24 3.24 0 0 1 3.26-3.26h10.85a3.24 3.24 0 0 1 3.25 3.26v10.85a3.24 3.24 0 0 1-3.25 3.25H38.54a3.24 3.24 0 0 1-3.26-3.25zm0 26a3.24 3.24 0 0 1 3.26-3.25h10.85a3.1 3.1 0 0 1 2.3.95 3.14 3.14 0 0 1 1 2.3v10.88a3.14 3.14 0 0 1-1 2.3 3.1 3.1 0 0 1-2.3 1H38.54a3.24 3.24 0 0 1-3.26-3.25zm16.41 39.19a3.14 3.14 0 0 1-2.3 1H38.54a3.24 3.24 0 0 1-3.26-3.26v-10.86a3.24 3.24 0 0 1 3.26-3.26h10.85a3.24 3.24 0 0 1 3.25 3.26v10.84a3.15 3.15 0 0 1-.95 2.31z"></path>
</svg>
